# xmcd
#
# Track frame offsets: 
#        150
#        24568
#        54130
#        75542
#        111028
#        131385
#        155507
#        177977
#        199911
#        225139
#        251687
#        270072
#        310457
#        326761
#
# Disc length: 4587 seconds
#
# Revision: 3
# Processed by: cddbd v1.5.2PL0 Copyright (c) Steve Scherf et al.
# Submitted via: ExactAudioCopy v1.0b3
#
DISCID=a911e90e
DTITLE=Various Artist - Blues Paradise  Vol.13
DYEAR=2002
DGENRE=Blues
TTITLE0=Eric Culberson - Why Did You Life?
TTITLE1=Joe Bread Feat. Ronnie Earl and The Broad Casters - Feets Out In
TTITLE1=The Hallway
TTITLE2=Mighty Sam McClain - I'm So Lonely
TTITLE3=Lucky Peterson - Tribute To The King
TTITLE4=Bill Perry - In My Lonely Room
TTITLE5=Glenn Hughes - So Much Love To Give
TTITLE6=Sherman Robertson - In The Here And Now
TTITLE7=Jeff Pilson - You Shook Me
TTITLE8=Preston Shannon - Purple Rain
TTITLE9=Guitar Pete - Gasoline
TTITLE10=Gov' Mule - Rosking Horse
TTITLE11=Snowy White - Keep On Working
TTITLE12=The Holmes Brothers - Thank God For You
TTITLE13=Oscar Benton - Bensonhurst Blues
EXTD=
EXTT0=
EXTT1=
EXTT2=
EXTT3=
EXTT4=
EXTT5=
EXTT6=
EXTT7=
EXTT8=
EXTT9=
EXTT10=
EXTT11=
EXTT12=
EXTT13=
PLAYORDER=
